# xmcd
#
# Track frame offsets: 
#        150
#        19615
#        50035
#        70682
#        99284
#        110667
#        136173
#        151202
#        173361
#        186349
#        202607
#        226015
#        242209
#        261216
#        283054
#
# Disc length: 4409 seconds
#
# Revision: 2
# Processed by: cddbd v1.5.2PL0 Copyright (c) Steve Scherf et al.
# Submitted via: ExactAudioCopy v0.99pb4
#
DISCID=bf11370f
DTITLE=Various Artist - Deelderhythm
DYEAR=2006
DGENRE=Jazz
TTITLE0=Roy Eldrige and his Orchestra - Minor jive
TTITLE1=Al Cohn and his Charlie's Tavern Ensemble - Inside out
TTITLE2=Art Farmer - Mox nix
TTITLE3=Joe Newman with Frank Foster - Mo lasses
TTITLE4=John Plonsky Quintet - Putting on the Ritz
TTITLE5=The Jazz Modes - The oblong
TTITLE6=Bobby Bryant Sextet - 58th Street
TTITLE7=Randy Weston - Niger mambo
TTITLE8=The Jomar Dagron Quartet - Vinces' tune
TTITLE9=Tony Scott - The moon walks
TTITLE10=The Freddy Merkle Group - Proto cool
TTITLE11=James Moody Orchestra and Quartet - Smack-a-mac
TTITLE12=John Griffin Sextet - Olive refractions
TTITLE13=Frank Wess - Southern comfort
TTITLE14=Hank Mobley and Cedar Walton Quintet - Breakthrough
EXTD=YEAR: 2006
EXTT0=
EXTT1=
EXTT2=
EXTT3=
EXTT4=
EXTT5=
EXTT6=
EXTT7=
EXTT8=
EXTT9=
EXTT10=
EXTT11=
EXTT12=
EXTT13=
EXTT14=
PLAYORDER=
